<?xml version="1.0" encoding="UTF-8"?><svg id="a" xmlns="http://www.w3.org/2000/svg" width="100" height="100" viewBox="0 0 100 100"><path d="M78.81,13.98H21.19c-.8,0-1.44,.65-1.44,1.44s.65,1.44,1.44,1.44h56.18V90.34H22.63V21.19c0-.8-.65-1.44-1.44-1.44s-1.44,.65-1.44,1.44V91.78c0,.8,.65,1.44,1.44,1.44h57.62c.8,0,1.44-.65,1.44-1.44V15.43c0-.8-.65-1.44-1.44-1.44Z"/><path d="M38.48,9.66h23.05c.8,0,1.44-.65,1.44-1.44s-.65-1.44-1.44-1.44h-23.05c-1.89,.03-1.9,2.85,0,2.88Z"/><path d="M38.48,21.19c-7.15,0-12.97,5.82-12.97,12.97-.07,11.44,14.11,17.3,22.14,9.17,8.13-8.03,2.25-22.21-9.18-22.13h0Zm0,23.05c-12.5-.35-13.67-17.98-1.44-20.07v9.98c0,.38,.15,.75,.42,1.02l7.06,7.06c-1.74,1.3-3.84,2.01-6.04,2.01h0Zm8.08-4.04l-6.64-6.64v-9.39c7.36,.88,11.27,10.12,6.64,16.02Z"/><path d="M50.8,59.38c-3.78-3.78-10.67-2.68-10.96-2.63-.61,.1-1.08,.58-1.18,1.19-.99,6.83,1.47,14.44,12.09,13.74,.88,2.03,1.38,4.2,1.44,6.49-.51,2.27-.81,4.47-.88,6.56-.03,.8,.6,1.46,1.39,1.49,.79,.03,1.46-.6,1.49-1.39,.04-6.75,3.83-15.59,6.74-20.28,10.76,.07,13.1-7.55,11.16-14.94-.17-.59-.7-1.01-1.31-1.04-.3-.02-7.25-.32-10.58,3.87-2.64,3.33-2.01,8.24-1.57,10.36-1.46,2.45-3.17,5.7-4.58,9.41-.24-.71-.51-1.41-.83-2.1,.47-1.95,.82-7.51-2.4-10.72h0Zm-7.47,7.47c-2-2-2.06-5.58-1.95-7.37,6.62-.5,9.91,2.69,9.13,9.32-1.79,.09-5.25-.03-7.18-1.96h0Zm19.1-12.62c1.76-2.22,5.32-2.68,7.1-2.77,1.25,6.66-1.74,10.13-8.22,10.21-.31-1.81-.6-5.29,1.11-7.45h0Z"/><path d="M28.39,84.57h14.41c1.89-.03,1.9-2.85,0-2.88h-14.41c-1.89,.03-1.9,2.85,0,2.88Z"/><path d="M28.39,77.37h10.08c1.89-.03,1.9-2.85,0-2.88h-10.08c-1.89,.03-1.9,2.85,0,2.88Z"/></svg>