<?xml version="1.0" encoding="utf-8"?>
<!-- Generator: Adobe Illustrator 26.3.1, SVG Export Plug-In . SVG Version: 6.00 Build 0)  -->
<svg version="1.1" height="50px" width="193px" id="Layer_1" xmlns="http://www.w3.org/2000/svg" xmlns:xlink="http://www.w3.org/1999/xlink" x="0px" y="0px"
	 viewBox="0 0 193 50" style="enable-background:new 0 0 193 50;" xml:space="preserve">
<style type="text/css">
	.st0{fill:#FF9934;}
	.st1{fill:url(#SVGID_1_);}
	.st2{fill:url(#SVGID_00000059992000594807746170000012216834098863070906_);}
	.st3{fill:url(#SVGID_00000047037243055952808930000001370421686226719154_);}
	.st4{fill:url(#SVGID_00000086686047048085062440000006522059394208341687_);}
	.st5{fill:url(#SVGID_00000149347370761706909650000008595132778477178031_);}
	.st6{fill:url(#SVGID_00000142162625572088742930000016688159561012680636_);}
	.st7{fill:#2851BB;}
</style>
<g>
	<path class="st0" d="M29.3,19.6V28c0,5.4-4.4,9.7-9.7,9.7c0,0,0,0,0,0c-0.3,5.4-4.9,9.5-10.3,9.3c-5-0.3-9-4.3-9.3-9.3h17.3
		c1.3,0,2.3-1,2.3-2.3c0,0,0,0,0,0c0.2-5,0.4-10.1,0.5-15.1L29.3,19.6z"/>
	
		<linearGradient id="SVGID_1_" gradientUnits="userSpaceOnUse" x1="4651.5542" y1="1429.7755" x2="4685.8398" y2="1370.3872" gradientTransform="matrix(-0.285 0 0 0.285 1343.0826 -382.2052)">
		<stop  offset="0" style="stop-color:#1A0797"/>
		<stop  offset="1" style="stop-color:#338DD8"/>
	</linearGradient>
	<path class="st1" d="M0,30.4V22c0-5.4,4.4-9.7,9.7-9.7c0,0,0,0,0,0C10,6.9,14.6,2.8,20,3.1c5,0.3,9,4.3,9.3,9.3H12
		c-0.6,0-1.2,0.2-1.6,0.7c-0.4,0.4-0.7,1-0.7,1.6c0,0.7-0.2,6.9-0.4,15.4L0,30.4z"/>
	
		<linearGradient id="SVGID_00000033361707433697952940000007871988973137685641_" gradientUnits="userSpaceOnUse" x1="4724.0723" y1="1544.0845" x2="4669.7661" y2="1553.6652" gradientTransform="matrix(-0.285 0 0 0.285 1346.2657 -400.4893)">
		<stop  offset="0" style="stop-color:#FF9934"/>
		<stop  offset="1" style="stop-color:#FE7E00"/>
	</linearGradient>
	<path style="fill:url(#SVGID_00000033361707433697952940000007871988973137685641_);" d="M0,37.7c0.2,4.7,4.2,8.4,9.1,8.4
		s8.9-3.7,9.1-8.4H0z"/>
	
		<linearGradient id="SVGID_00000127762848646851711780000018049617333199602573_" gradientUnits="userSpaceOnUse" x1="4650.061" y1="1503.6389" x2="4600.8682" y2="1485.7318" gradientTransform="matrix(-0.285 0 0 0.285 1346.2657 -400.4893)">
		<stop  offset="0" style="stop-color:#FE7E00"/>
		<stop  offset="1" style="stop-color:#FF9934"/>
	</linearGradient>
	<path style="fill:url(#SVGID_00000127762848646851711780000018049617333199602573_);" d="M19.5,36.5L19.5,36.5L19.5,36.5V21
		c0-0.7,0.6-1.3,1.3-1.3h8.4l0,0v7.1C29.3,32.2,24.9,36.5,19.5,36.5L19.5,36.5z"/>
	
		<linearGradient id="SVGID_00000060709491899016778570000017816254245036648628_" gradientUnits="userSpaceOnUse" x1="616.5424" y1="-964.3672" x2="566.1734" y2="-976.9009" gradientTransform="matrix(0.285 0 0 -0.285 -144.8027 -268.3716)">
		<stop  offset="0" style="stop-color:#1A0797"/>
		<stop  offset="0.99" style="stop-color:#2E6FC9"/>
		<stop  offset="1" style="stop-color:#2E70CA"/>
	</linearGradient>
	<path style="fill:url(#SVGID_00000060709491899016778570000017816254245036648628_);" d="M29.3,12.3C29,7.7,25,4,20.1,4
		s-8.9,3.7-9.1,8.4H29.3z"/>
	
		<linearGradient id="SVGID_00000101807244500511480440000014631188105226985606_" gradientUnits="userSpaceOnUse" x1="541.8028" y1="-1039.4449" x2="515.3199" y2="-1007.8812" gradientTransform="matrix(0.285 0 0 -0.285 -143.7198 -267.36)">
		<stop  offset="0" style="stop-color:#1A0797"/>
		<stop  offset="1" style="stop-color:#2E72CB"/>
	</linearGradient>
	<path style="fill:url(#SVGID_00000101807244500511480440000014631188105226985606_);" d="M9.7,13.5L9.7,13.5L9.7,13.5V29
		c0,0.7-0.6,1.3-1.3,1.3H0l0,0v-7.1C0,17.8,4.4,13.5,9.7,13.5L9.7,13.5z"/>
	
		<linearGradient id="SVGID_00000096022466757933305280000006818234993699361440_" gradientUnits="userSpaceOnUse" x1="551.5263" y1="-1064.3667" x2="551.5263" y2="-1064.3667" gradientTransform="matrix(0.285 0 0 -0.285 -144.8027 -268.3716)">
		<stop  offset="0" style="stop-color:#1A0797"/>
		<stop  offset="0.51" style="stop-color:#338DD8"/>
		<stop  offset="1" style="stop-color:#35D8F4"/>
	</linearGradient>
	<path style="fill:url(#SVGID_00000096022466757933305280000006818234993699361440_);" d="M12.4,34.9"/>
	<path class="st0" d="M38.3,34.6c-0.7-0.2-1.1-0.6-1.1-0.9c0-0.6,0.1-1.1,0.4-1.6c0.2-0.6,0.5-0.9,0.8-0.9c0.2,0,0.4,0.1,0.6,0.1
		c0.3,0.1,0.7,0.1,1,0.1c0.7,0,1.3-0.3,1.6-0.8c0.3-0.5,0.5-1.4,0.5-2.7V13.2c0-0.6,0.5-1,1.6-1h1c1.1,0,1.6,0.3,1.6,1v15.1
		c0,4.5-1.9,6.7-5.7,6.7C39.9,35,39.1,34.9,38.3,34.6z"/>
	<path class="st0" d="M50.9,33.7c-0.8-0.9-1.2-2.1-1.2-3.7c0-1.8,0.6-3.3,1.9-4.3c1.3-1.1,3.3-1.6,5.9-1.6v-0.9
		c0-1.4-0.7-2.2-2.2-2.2c-0.5,0-1,0.1-1.5,0.2c-0.5,0.2-0.9,0.3-1.4,0.6c-0.2,0.1-0.4,0.2-0.6,0.3c-0.3,0-0.6-0.3-0.9-0.9
		c-0.4-0.6-0.5-1-0.5-1.4c0-0.3,0.3-0.7,0.8-1c0.6-0.4,1.3-0.6,2-0.8c0.8-0.2,1.7-0.3,2.5-0.3c2,0,3.6,0.5,4.5,1.4
		c1,0.9,1.5,2.2,1.5,3.9v6.4c0,1.1,0,2.1,0.2,3.2c0.1,0.4,0.2,0.8,0.2,1.2c0,0.3-0.4,0.5-1.1,0.7c-0.6,0.1-1.3,0.2-1.9,0.2
		c-0.3,0-0.6-0.2-0.7-0.4c-0.2-0.4-0.4-0.9-0.4-1.3c-0.4,0.6-0.9,1-1.5,1.4C55.8,34.8,55,35,54.2,35C52.8,35,51.7,34.6,50.9,33.7z
		 M56.6,31.5c0.4-0.2,0.7-0.6,1-1v-3.9c-2.7,0-4.1,1-4.1,3c0,0.6,0.1,1.1,0.5,1.6c0.4,0.4,0.9,0.6,1.4,0.6
		C55.8,31.9,56.2,31.8,56.6,31.5L56.6,31.5z"/>
	<path class="st0" d="M65.7,33.9V23.3c0-1.1,0-2.1-0.2-3.2c-0.1-0.6-0.2-1-0.2-1.1c0-0.3,0.4-0.6,1.1-0.8c0.6-0.1,1.3-0.2,1.9-0.2
		c0.3,0,0.6,0.1,0.7,0.4c0.1,0.3,0.2,0.6,0.3,0.9c0.1,0.4,0.1,0.6,0.1,0.9c0.5-0.7,1.1-1.3,1.8-1.7c0.7-0.4,1.5-0.7,2.4-0.7
		c1.2,0,2.2,0.4,2.8,1.2s1,1.9,1,3.5v11.5c0,0.6-0.5,0.9-1.6,0.9h-0.8c-1.1,0-1.7-0.3-1.7-0.9V23.2c0-0.7-0.1-1.2-0.4-1.6
		c-0.3-0.4-0.7-0.6-1.2-0.5c-0.4,0-0.8,0.1-1.2,0.4c-0.4,0.3-0.7,0.6-0.9,1v11.3c0,0.3-0.1,0.6-0.4,0.7c-0.4,0.2-0.8,0.3-1.2,0.2
		h-0.8C66.2,34.8,65.7,34.5,65.7,33.9z"/>
	<path class="st7" d="M82.8,34.6c-0.8-0.2-1.6-0.6-2.3-1.2c-0.1-0.2-0.2-0.3-0.3-0.5c-0.1-0.2-0.1-0.4-0.1-0.5
		c0-0.6,0.1-1.1,0.4-1.6c0.3-0.5,0.5-0.8,0.9-0.8c0.2,0,0.4,0.1,0.6,0.2c0.3,0.2,0.5,0.3,0.5,0.3c0.9,0.6,1.9,0.9,3,0.9
		c0.8,0,1.5-0.2,2.1-0.6c0.6-0.4,0.9-1.1,0.9-2c0-0.8-0.3-1.5-0.8-2.1c-0.7-0.6-1.5-1.2-2.4-1.6c-0.9-0.5-1.8-1.1-2.7-1.7
		c-0.7-0.6-1.3-1.2-1.6-2c-0.4-0.9-0.6-1.9-0.6-2.9c0-1.2,0.3-2.4,0.9-3.4c0.6-0.9,1.4-1.7,2.4-2.2c1.1-0.5,2.3-0.8,3.5-0.8
		c0.8,0,1.5,0.1,2.2,0.3c0.7,0.2,1.3,0.4,1.9,0.8c0.3,0.2,0.5,0.5,0.4,0.9c0,0.5-0.1,1.1-0.4,1.6c-0.2,0.6-0.5,0.9-0.8,0.9
		c-0.3,0-0.5-0.1-0.7-0.2c-0.8-0.3-1.6-0.5-2.4-0.5c-0.9,0-1.6,0.2-2.1,0.7c-0.5,0.4-0.7,1.1-0.7,1.7c0,0.5,0.1,1,0.4,1.5
		c0.2,0.4,0.6,0.7,0.9,1c0.5,0.4,1.1,0.7,1.6,1c0.3,0.2,0.5,0.3,0.6,0.3c1.5,0.8,2.6,1.7,3.4,2.7c0.7,0.9,1.1,2.2,1.1,3.9
		c0,1.2-0.3,2.3-0.8,3.4c-0.5,1-1.3,1.8-2.3,2.4C88.3,34.7,87,35,85.7,35C84.7,35,83.7,34.8,82.8,34.6z"/>
	<path class="st7" d="M95.8,33.7c-0.8-0.9-1.2-2.1-1.2-3.7c0-1.8,0.6-3.3,1.9-4.3c1.3-1.1,3.3-1.6,5.9-1.6v-0.9
		c0-1.4-0.7-2.2-2.2-2.2c-0.5,0-1,0.1-1.5,0.2c-0.5,0.2-0.9,0.3-1.4,0.6c-0.2,0.1-0.4,0.2-0.6,0.3c-0.3,0-0.6-0.3-0.9-0.9
		s-0.5-1-0.5-1.4c0-0.3,0.3-0.7,0.8-1c0.6-0.4,1.3-0.6,2-0.8c0.8-0.2,1.7-0.3,2.5-0.3c2,0,3.6,0.5,4.5,1.4s1.5,2.2,1.5,3.9v6.4
		c0,1.1,0,2.1,0.2,3.2c0.1,0.4,0.2,0.8,0.2,1.2c0,0.3-0.4,0.5-1.1,0.7c-0.6,0.1-1.3,0.2-1.9,0.2c-0.3,0-0.6-0.2-0.7-0.4
		c-0.2-0.4-0.4-0.9-0.4-1.3c-0.4,0.6-0.9,1-1.5,1.4c-0.7,0.4-1.4,0.6-2.2,0.6C97.6,35,96.5,34.6,95.8,33.7z M101.5,31.5
		c0.4-0.2,0.7-0.6,1-1v-3.9c-2.7,0-4.1,1-4.1,3c0,0.6,0.1,1.1,0.5,1.6c0.4,0.4,0.9,0.6,1.4,0.6C100.7,31.9,101.1,31.8,101.5,31.5
		L101.5,31.5z"/>
	<path class="st7" d="M128.9,19c0.6,0.8,1,2,1,3.5v11.4c0,0.6-0.5,0.9-1.6,0.9h-0.8c-1.1,0-1.6-0.3-1.6-0.9V23.3
		c0-0.6-0.1-1.1-0.4-1.6c-0.3-0.4-0.7-0.6-1.2-0.5c-0.4,0-0.8,0.1-1.1,0.4c-0.3,0.3-0.7,0.6-0.9,0.9v11.5c0,0.6-0.5,0.9-1.6,0.9
		h-0.8c-1.1,0-1.6-0.3-1.6-0.9V23.3c0-0.6-0.1-1.1-0.4-1.6c-0.3-0.4-0.7-0.6-1.2-0.5c-0.4,0-0.9,0.2-1.2,0.4c-0.3,0.3-0.6,0.6-0.8,1
		v11.3c0,0.3-0.1,0.6-0.4,0.7c-0.4,0.2-0.8,0.3-1.2,0.2h-0.8c-1.1,0-1.6-0.3-1.6-0.9V23.3c0-1.1,0-2.1-0.2-3.2
		c-0.1-0.6-0.2-1-0.2-1.1c0-0.3,0.4-0.6,1.1-0.8c0.6-0.1,1.3-0.2,1.9-0.2c0.3,0,0.6,0.1,0.7,0.4c0.1,0.3,0.2,0.6,0.3,0.9
		c0.1,0.4,0.1,0.6,0.1,0.9c0.5-0.7,1.1-1.3,1.7-1.7c0.7-0.4,1.5-0.7,2.4-0.7c0.8,0,1.5,0.2,2.1,0.6c0.6,0.4,1.1,1,1.3,1.7
		c0.5-0.7,1.1-1.3,1.8-1.7c0.7-0.4,1.6-0.6,2.4-0.6C127.4,17.8,128.3,18.2,128.9,19z"/>
	<path class="st7" d="M134.2,33.7c-0.8-0.9-1.2-2.1-1.2-3.7c0-1.8,0.6-3.3,1.9-4.3c1.3-1.1,3.3-1.6,5.9-1.6v-0.9
		c0-1.4-0.7-2.2-2.2-2.2c-0.5,0-1,0.1-1.5,0.2c-0.5,0.2-0.9,0.3-1.4,0.6c-0.2,0.1-0.4,0.2-0.6,0.3c-0.3,0-0.6-0.3-0.9-0.9
		c-0.3-0.6-0.5-1-0.5-1.4c0-0.3,0.3-0.7,0.8-1c0.6-0.4,1.3-0.6,2-0.8c0.8-0.2,1.7-0.3,2.5-0.3c2.1,0,3.6,0.5,4.5,1.4
		s1.5,2.2,1.5,3.9v6.4c0,1.1,0,2.1,0.2,3.2c0.1,0.4,0.2,0.8,0.2,1.2c0,0.3-0.4,0.5-1.1,0.7c-0.6,0.1-1.3,0.2-1.9,0.2
		c-0.3,0-0.6-0.2-0.7-0.4c-0.2-0.4-0.4-0.9-0.4-1.3c-0.4,0.6-0.9,1-1.5,1.4c-0.7,0.4-1.4,0.6-2.2,0.6C136.1,35,135,34.6,134.2,33.7z
		 M139.9,31.5c0.4-0.2,0.7-0.6,1-1v-3.9c-2.7,0-4.1,1-4.1,3c0,0.6,0.1,1.1,0.5,1.6c0.4,0.4,0.9,0.6,1.4,0.6
		C139.1,31.9,139.6,31.8,139.9,31.5L139.9,31.5z"/>
	<path class="st7" d="M149.2,33.9V23.3c0-1,0-2.1-0.2-3.1c-0.1-0.4-0.2-0.8-0.2-1.2c0-0.3,0.4-0.5,1.1-0.7c0.6-0.1,1.3-0.2,1.9-0.2
		c0.3,0,0.6,0.2,0.7,0.4c0.2,0.3,0.3,0.6,0.3,1c0.1,0.4,0.1,0.6,0.1,0.7c0.3-0.7,0.7-1.3,1.3-1.8c0.5-0.4,1.1-0.7,1.7-0.6
		c0.6,0,1,0.1,1.2,0.4c0.3,0.3,0.4,0.7,0.4,1.2c0,0.5-0.1,1.1-0.2,1.6c-0.1,0.6-0.3,0.9-0.5,0.9c-0.2,0-0.4-0.1-0.7-0.1
		c-0.3-0.1-0.6-0.1-0.9-0.1c-0.5,0-0.9,0.2-1.2,0.5c-0.3,0.3-0.6,0.7-0.7,1.2v10.6c0,0.6-0.6,0.9-1.7,0.9h-0.6
		C149.8,34.8,149.2,34.5,149.2,33.9z"/>
	<path class="st7" d="M160.9,33.9c-0.7-0.7-1.1-1.9-1.1-3.5v-9.1h-0.6c-0.3,0-0.5-0.1-0.7-0.3c-0.2-0.3-0.2-0.7-0.2-1.1v-0.5
		c0-0.4,0-0.7,0.2-1.1c0.1-0.2,0.4-0.3,0.7-0.3h0.6l0.4-3.1c0.1-0.6,0.6-0.9,1.5-0.9h0.8c0.9,0,1.4,0.3,1.4,0.9V18h1.5
		c0.3,0,0.5,0.1,0.7,0.3c0.2,0.3,0.2,0.7,0.2,1.1v0.5c0,0.4,0,0.7-0.2,1.1c-0.1,0.2-0.4,0.3-0.7,0.3h-1.5v9.1c0,0.4,0.1,0.8,0.2,1.1
		c0.2,0.2,0.4,0.3,0.7,0.3c0.2,0,0.4,0,0.5-0.1c0.1,0,0.3-0.1,0.4-0.1c0.2,0,0.4,0.3,0.6,0.8c0.1,0.4,0.2,0.8,0.3,1.2
		c0,0.5-0.3,0.8-0.9,1c-0.6,0.2-1.3,0.3-2,0.3C162.6,35.1,161.6,34.6,160.9,33.9z"/>
	<path class="st7" d="M169.1,33.9V11.5c0-0.6,0.5-0.9,1.6-0.9h0.9c1.1,0,1.6,0.3,1.6,0.9v8.4c0.5-0.6,1-1.2,1.7-1.6
		c0.7-0.4,1.5-0.6,2.3-0.6c1.2,0,2.1,0.4,2.8,1.2s1,1.9,1,3.5v11.5c0,0.6-0.5,0.9-1.6,0.9h-0.8c-0.4,0-0.9,0-1.3-0.2
		c-0.3-0.1-0.4-0.4-0.4-0.7V23.2c0-1.4-0.5-2.1-1.6-2.1c-0.5,0-0.9,0.2-1.3,0.4c-0.3,0.3-0.6,0.6-0.8,1v11.3c0,0.3-0.1,0.6-0.4,0.7
		c-0.4,0.2-0.8,0.3-1.2,0.2h-0.8C169.6,34.8,169.1,34.5,169.1,33.9z"/>
	<g id="Group_17050" data-name="Group 17050" transform="translate(182, 10)">
        <path id="Path_23696" data-name="Path 23696" d="M186.856,10.7a2.571,2.571,0,0,0-1.572.5,2.749,2.749,0,0,0-1.072,1.286,2.571,2.571,0,0,0-.143,1.643,2.571,2.571,0,0,0,.786,1.429,3.162,3.162,0,0,0,1.429.786,2.571,2.571,0,0,0,1.643-.143,3.058,3.058,0,0,0,1.286-1.072,2.93,2.93,0,0,0,.5-1.572,2.821,2.821,0,0,0-.857-2,2.594,2.594,0,0,0-2-.857Zm0,5.072a2.911,2.911,0,0,1-1.286-.357,2.376,2.376,0,0,1-.857-1,2.017,2.017,0,0,1-.143-1.286,1.856,1.856,0,0,1,.643-1.143,2.98,2.98,0,0,1,1.143-.643,2.017,2.017,0,0,1,1.286.143,1.689,1.689,0,0,1,1,.857A2.467,2.467,0,0,1,189,13.629a2.216,2.216,0,0,1-.643,1.572,2.169,2.169,0,0,1-1.5.571Z" transform="translate(-183.996 -10.7)" fill="#2D3079"/>
        <path id="Path_23697" data-name="Path 23697" d="M188.714,13.586a.737.737,0,0,0-.786-.786H186.5v2.786h.571V14.372h.429l.786,1.143h.643l-.786-1.143a.656.656,0,0,0,.429-.286A1.325,1.325,0,0,0,188.714,13.586Zm-.857.214H187v-.571h.857a.287.287,0,1,1,0,.571Z" transform="translate(-184.711 -11.3)" fill="#2D3079"/>
      </g>
</g>
</svg>
